<svg width="64" height="64" viewBox="0 0 64 64" fill="none" xmlns="http://www.w3.org/2000/svg">
<rect x="2.5" y="2.5" width="59" height="59" rx="10.5" fill="#414CF8"/>
<rect x="2.5" y="2.5" width="59" height="59" rx="10.5" stroke="#00FB37" stroke-width="5"/>
<mask id="path-2-outside-1_134_10" maskUnits="userSpaceOnUse" x="7" y="17" width="50" height="29" fill="black">
<rect fill="white" x="7" y="17" width="50" height="29"/>
<path d="M15.227 23.8H18.427V25.8C18.427 27.2167 18.3103 28.6 18.077 29.95C17.8436 31.3 17.4686 32.5667 16.952 33.75C16.4353 34.9333 15.7603 35.975 14.927 36.875C14.0936 37.775 13.077 38.4917 11.877 39.025L9.60195 35.85C10.652 35.3833 11.5353 34.7833 12.252 34.05C12.9853 33.3167 13.5686 32.5 14.002 31.6C14.4353 30.7 14.7436 29.7583 14.927 28.775C15.127 27.775 15.227 26.7833 15.227 25.8V23.8ZM16.152 23.8H19.327V25.8C19.327 26.7167 19.4186 27.65 19.602 28.6C19.802 29.5333 20.1103 30.425 20.527 31.275C20.9603 32.125 21.527 32.8917 22.227 33.575C22.9436 34.2583 23.827 34.8167 24.877 35.25L22.702 38.425C21.502 37.925 20.4853 37.2417 19.652 36.375C18.8186 35.5083 18.1436 34.5167 17.627 33.4C17.1103 32.2667 16.7353 31.0583 16.502 29.775C16.2686 28.475 16.152 27.15 16.152 25.8V23.8ZM10.627 22.075H23.827V25.375H10.627V22.075ZM25.452 19.925H29.502V43.375H25.452V19.925ZM47.45 19.9H51.475V33.45H47.45V19.9ZM50.375 25.1H54.4V28.4H50.375V25.1ZM40.6 21.125H44.875C44.875 23.2583 44.4583 25.15 43.625 26.8C42.8083 28.45 41.5917 29.8417 39.975 30.975C38.375 32.1083 36.4083 32.975 34.075 33.575L32.425 30.475C34.3083 30.025 35.85 29.4333 37.05 28.7C38.25 27.95 39.1417 27.1083 39.725 26.175C40.3083 25.225 40.6 24.2333 40.6 23.2V21.125ZM33.675 21.125H43.05V24.3H33.675V21.125ZM35.6 34.375H51.475V43.375H47.45V37.525H35.6V34.375Z"/>
</mask>
<path d="M15.227 23.8H18.427V25.8C18.427 27.2167 18.3103 28.6 18.077 29.95C17.8436 31.3 17.4686 32.5667 16.952 33.75C16.4353 34.9333 15.7603 35.975 14.927 36.875C14.0936 37.775 13.077 38.4917 11.877 39.025L9.60195 35.85C10.652 35.3833 11.5353 34.7833 12.252 34.05C12.9853 33.3167 13.5686 32.5 14.002 31.6C14.4353 30.7 14.7436 29.7583 14.927 28.775C15.127 27.775 15.227 26.7833 15.227 25.8V23.8ZM16.152 23.8H19.327V25.8C19.327 26.7167 19.4186 27.65 19.602 28.6C19.802 29.5333 20.1103 30.425 20.527 31.275C20.9603 32.125 21.527 32.8917 22.227 33.575C22.9436 34.2583 23.827 34.8167 24.877 35.25L22.702 38.425C21.502 37.925 20.4853 37.2417 19.652 36.375C18.8186 35.5083 18.1436 34.5167 17.627 33.4C17.1103 32.2667 16.7353 31.0583 16.502 29.775C16.2686 28.475 16.152 27.15 16.152 25.8V23.8ZM10.627 22.075H23.827V25.375H10.627V22.075ZM25.452 19.925H29.502V43.375H25.452V19.925ZM47.45 19.9H51.475V33.45H47.45V19.9ZM50.375 25.1H54.4V28.4H50.375V25.1ZM40.6 21.125H44.875C44.875 23.2583 44.4583 25.15 43.625 26.8C42.8083 28.45 41.5917 29.8417 39.975 30.975C38.375 32.1083 36.4083 32.975 34.075 33.575L32.425 30.475C34.3083 30.025 35.85 29.4333 37.05 28.7C38.25 27.95 39.1417 27.1083 39.725 26.175C40.3083 25.225 40.6 24.2333 40.6 23.2V21.125ZM33.675 21.125H43.05V24.3H33.675V21.125ZM35.6 34.375H51.475V43.375H47.45V37.525H35.6V34.375Z" fill="#F3F55C"/>
<path d="M15.227 23.8V21.8C14.1224 21.8 13.227 22.6954 13.227 23.8H15.227ZM18.427 23.8H20.427C20.427 22.6954 19.5315 21.8 18.427 21.8V23.8ZM18.077 29.95L16.1062 29.6094V29.6094L18.077 29.95ZM16.952 33.75L18.7849 34.5503L18.7849 34.5503L16.952 33.75ZM14.927 36.875L16.3945 38.2338H16.3945L14.927 36.875ZM11.877 39.025L10.2512 40.1899C10.8038 40.9611 11.8222 41.238 12.6892 40.8526L11.877 39.025ZM9.60195 35.85L8.78968 34.0224C8.24018 34.2666 7.82972 34.7451 7.67199 35.3254C7.51425 35.9056 7.62597 36.5261 7.97622 37.0149L9.60195 35.85ZM12.252 34.05L10.8377 32.6358C10.8323 32.6412 10.8269 32.6467 10.8216 32.6521L12.252 34.05ZM14.002 31.6L12.1999 30.7324H12.1999L14.002 31.6ZM14.927 28.775L12.9658 28.3828C12.9641 28.3913 12.9624 28.3999 12.9608 28.4084L14.927 28.775ZM16.152 23.8V21.8C15.0474 21.8 14.152 22.6954 14.152 23.8H16.152ZM19.327 23.8H21.327C21.327 22.6954 20.4315 21.8 19.327 21.8V23.8ZM19.602 28.6L17.6382 28.979C17.6408 28.9924 17.6435 29.0057 17.6463 29.0191L19.602 28.6ZM20.527 31.275L18.7311 32.1553C18.7357 32.1647 18.7404 32.1741 18.7451 32.1834L20.527 31.275ZM22.227 33.575L20.8299 35.0061C20.8355 35.0116 20.8411 35.0171 20.8468 35.0225L22.227 33.575ZM24.877 35.25L26.5269 36.3803C26.8679 35.8826 26.966 35.2575 26.7938 34.6793C26.6216 34.101 26.1976 33.6314 25.6399 33.4013L24.877 35.25ZM22.702 38.425L21.9327 40.2712C22.8069 40.6354 23.8167 40.3366 24.3519 39.5553L22.702 38.425ZM19.652 36.375L21.0936 34.9888V34.9888L19.652 36.375ZM17.627 33.4L15.8071 34.2296L15.8118 34.2398L17.627 33.4ZM16.502 29.775L14.5334 30.1283L14.5342 30.1328L16.502 29.775ZM10.627 22.075V20.075C9.52238 20.075 8.62695 20.9704 8.62695 22.075H10.627ZM23.827 22.075H25.827C25.827 20.9704 24.9315 20.075 23.827 20.075V22.075ZM23.827 25.375V27.375C24.9315 27.375 25.827 26.4796 25.827 25.375H23.827ZM10.627 25.375H8.62695C8.62695 26.4796 9.52238 27.375 10.627 27.375V25.375ZM25.452 19.925V17.925C24.3474 17.925 23.452 18.8204 23.452 19.925H25.452ZM29.502 19.925H31.502C31.502 18.8204 30.6065 17.925 29.502 17.925V19.925ZM29.502 43.375V45.375C30.6065 45.375 31.502 44.4796 31.502 43.375H29.502ZM25.452 43.375H23.452C23.452 44.4796 24.3474 45.375 25.452 45.375V43.375ZM15.227 23.8V25.8H18.427V23.8V21.8H15.227V23.8ZM18.427 23.8H16.427V25.8H18.427H20.427V23.8H18.427ZM18.427 25.8H16.427C16.427 27.1064 16.3194 28.3756 16.1062 29.6094L18.077 29.95L20.0477 30.2906C20.3012 28.8244 20.427 27.327 20.427 25.8H18.427ZM18.077 29.95L16.1062 29.6094C15.8985 30.8108 15.5677 31.9222 15.119 32.9497L16.952 33.75L18.7849 34.5503C19.3696 33.2111 19.7887 31.7892 20.0477 30.2906L18.077 29.95ZM16.952 33.75L15.119 32.9497C14.6873 33.9386 14.1327 34.7891 13.4594 35.5162L14.927 36.875L16.3945 38.2338C17.3879 37.1609 18.1833 35.928 18.7849 34.5503L16.952 33.75ZM14.927 36.875L13.4594 35.5162C12.8232 36.2033 12.0345 36.7664 11.0647 37.1974L11.877 39.025L12.6892 40.8526C14.1194 40.217 15.364 39.3467 16.3945 38.2338L14.927 36.875ZM11.877 39.025L13.5027 37.8601L11.2277 34.6851L9.60195 35.85L7.97622 37.0149L10.2512 40.1899L11.877 39.025ZM9.60195 35.85L10.4142 37.6776C11.6678 37.1205 12.7686 36.3828 13.6823 35.4479L12.252 34.05L10.8216 32.6521C10.302 33.1838 9.6361 33.6462 8.78968 34.0224L9.60195 35.85ZM12.252 34.05L13.6662 35.4642C14.5524 34.5779 15.2693 33.578 15.804 32.4676L14.002 31.6L12.1999 30.7324C11.8679 31.422 11.4181 32.0554 10.8377 32.6358L12.252 34.05ZM14.002 31.6L15.804 32.4676C16.314 31.4084 16.6774 30.2982 16.8931 29.1416L14.927 28.775L12.9608 28.4084C12.8098 29.2185 12.5566 29.9916 12.1999 30.7324L14.002 31.6ZM14.927 28.775L16.8881 29.1672C17.113 28.0429 17.227 26.9198 17.227 25.8H15.227H13.227C13.227 26.6468 13.1409 27.5071 12.9658 28.3828L14.927 28.775ZM15.227 25.8H17.227V23.8H15.227H13.227V25.8H15.227ZM16.152 23.8V25.8H19.327V23.8V21.8H16.152V23.8ZM19.327 23.8H17.327V25.8H19.327H21.327V23.8H19.327ZM19.327 25.8H17.327C17.327 26.8507 17.4321 27.911 17.6382 28.979L19.602 28.6L21.5657 28.221C21.4052 27.389 21.327 26.5827 21.327 25.8H19.327ZM19.602 28.6L17.6463 29.0191C17.8803 30.1107 18.242 31.1574 18.7311 32.1553L20.527 31.275L22.3228 30.3947C21.9786 29.6926 21.7236 28.9559 21.5576 28.1809L19.602 28.6ZM20.527 31.275L18.7451 32.1834C19.2799 33.2323 19.978 34.1746 20.8299 35.0061L22.227 33.575L23.624 32.1439C23.0759 31.6088 22.6407 31.0177 22.3088 30.3666L20.527 31.275ZM22.227 33.575L20.8468 35.0225C21.7669 35.8998 22.8685 36.5847 24.114 37.0987L24.877 35.25L25.6399 33.4013C24.7854 33.0486 24.1203 32.6169 23.6071 32.1275L22.227 33.575ZM24.877 35.25L23.227 34.1197L21.052 37.2947L22.702 38.425L24.3519 39.5553L26.5269 36.3803L24.877 35.25ZM22.702 38.425L23.4712 36.5788C22.5037 36.1757 21.7217 35.642 21.0936 34.9888L19.652 36.375L18.2103 37.7612C19.2489 38.8413 20.5002 39.6743 21.9327 40.2712L22.702 38.425ZM19.652 36.375L21.0936 34.9888C20.4179 34.286 19.8677 33.48 19.4421 32.5602L17.627 33.4L15.8118 34.2398C16.4196 35.5533 17.2194 36.7307 18.2103 37.7612L19.652 36.375ZM17.627 33.4L19.4468 32.5704C19.0019 31.5945 18.6748 30.5455 18.4697 29.4172L16.502 29.775L14.5342 30.1328C14.7957 31.5712 15.2187 32.9388 15.8071 34.2296L17.627 33.4ZM16.502 29.775L18.4705 29.4217C18.2586 28.2408 18.152 27.0341 18.152 25.8H16.152H14.152C14.152 27.2659 14.2787 28.7092 14.5334 30.1283L16.502 29.775ZM16.152 25.8H18.152V23.8H16.152H14.152V25.8H16.152ZM10.627 22.075V24.075H23.827V22.075V20.075H10.627V22.075ZM23.827 22.075H21.827V25.375H23.827H25.827V22.075H23.827ZM23.827 25.375V23.375H10.627V25.375V27.375H23.827V25.375ZM10.627 25.375H12.627V22.075H10.627H8.62695V25.375H10.627ZM25.452 19.925V21.925H29.502V19.925V17.925H25.452V19.925ZM29.502 19.925H27.502V43.375H29.502H31.502V19.925H29.502ZM29.502 43.375V41.375H25.452V43.375V45.375H29.502V43.375ZM25.452 43.375H27.452V19.925H25.452H23.452V43.375H25.452ZM47.45 19.9V17.9C46.3454 17.9 45.45 18.7954 45.45 19.9H47.45ZM51.475 19.9H53.475C53.475 18.7954 52.5796 17.9 51.475 17.9V19.9ZM51.475 33.45V35.45C52.5796 35.45 53.475 34.5546 53.475 33.45H51.475ZM47.45 33.45H45.45C45.45 34.5546 46.3454 35.45 47.45 35.45V33.45ZM50.375 25.1V23.1C49.2704 23.1 48.375 23.9954 48.375 25.1H50.375ZM54.4 25.1H56.4C56.4 23.9954 55.5046 23.1 54.4 23.1V25.1ZM54.4 28.4V30.4C55.5046 30.4 56.4 29.5046 56.4 28.4H54.4ZM50.375 28.4H48.375C48.375 29.5046 49.2704 30.4 50.375 30.4V28.4ZM40.6 21.125V19.125C39.4954 19.125 38.6 20.0204 38.6 21.125H40.6ZM44.875 21.125H46.875C46.875 20.0204 45.9796 19.125 44.875 19.125V21.125ZM43.625 26.8L41.8398 25.8984C41.8373 25.9032 41.8349 25.908 41.8325 25.9128L43.625 26.8ZM39.975 30.975L38.8269 29.3373L38.819 29.343L39.975 30.975ZM34.075 33.575L32.3095 34.5147C32.7433 35.3298 33.6788 35.7419 34.5731 35.512L34.075 33.575ZM32.425 30.475L31.9602 28.5298C31.3579 28.6737 30.8563 29.0884 30.6017 29.653C30.3472 30.2175 30.3686 30.8681 30.6595 31.4147L32.425 30.475ZM37.05 28.7L38.0929 30.4066C38.0986 30.4031 38.1043 30.3995 38.11 30.396L37.05 28.7ZM39.725 26.175L41.421 27.235C41.4238 27.2305 41.4266 27.226 41.4293 27.2215L39.725 26.175ZM33.675 21.125V19.125C32.5704 19.125 31.675 20.0204 31.675 21.125H33.675ZM43.05 21.125H45.05C45.05 20.0204 44.1546 19.125 43.05 19.125V21.125ZM43.05 24.3V26.3C44.1546 26.3 45.05 25.4046 45.05 24.3H43.05ZM33.675 24.3H31.675C31.675 25.4046 32.5704 26.3 33.675 26.3V24.3ZM35.6 34.375V32.375C34.4954 32.375 33.6 33.2704 33.6 34.375H35.6ZM51.475 34.375H53.475C53.475 33.2704 52.5796 32.375 51.475 32.375V34.375ZM51.475 43.375V45.375C52.5796 45.375 53.475 44.4796 53.475 43.375H51.475ZM47.45 43.375H45.45C45.45 44.4796 46.3454 45.375 47.45 45.375V43.375ZM47.45 37.525H49.45C49.45 36.4204 48.5546 35.525 47.45 35.525V37.525ZM35.6 37.525H33.6C33.6 38.6296 34.4954 39.525 35.6 39.525V37.525ZM47.45 19.9V21.9H51.475V19.9V17.9H47.45V19.9ZM51.475 19.9H49.475V33.45H51.475H53.475V19.9H51.475ZM51.475 33.45V31.45H47.45V33.45V35.45H51.475V33.45ZM47.45 33.45H49.45V19.9H47.45H45.45V33.45H47.45ZM50.375 25.1V27.1H54.4V25.1V23.1H50.375V25.1ZM54.4 25.1H52.4V28.4H54.4H56.4V25.1H54.4ZM54.4 28.4V26.4H50.375V28.4V30.4H54.4V28.4ZM50.375 28.4H52.375V25.1H50.375H48.375V28.4H50.375ZM40.6 21.125V23.125H44.875V21.125V19.125H40.6V21.125ZM44.875 21.125H42.875C42.875 22.9935 42.5116 24.5681 41.8398 25.8984L43.625 26.8L45.4102 27.7016C46.4051 25.7319 46.875 23.5232 46.875 21.125H44.875ZM43.625 26.8L41.8325 25.9128C41.1751 27.241 40.1898 28.3819 38.8269 29.3373L39.975 30.975L41.1231 32.6127C42.9935 31.3014 44.4415 29.659 45.4175 27.6872L43.625 26.8ZM39.975 30.975L38.819 29.343C37.4576 30.3073 35.7264 31.0853 33.5769 31.638L34.075 33.575L34.5731 35.512C37.0903 34.8647 39.2924 33.9094 41.131 32.607L39.975 30.975ZM34.075 33.575L35.8405 32.6353L34.1905 29.5353L32.425 30.475L30.6595 31.4147L32.3095 34.5147L34.075 33.575ZM32.425 30.475L32.8898 32.4202C34.906 31.9385 36.6607 31.2818 38.0929 30.4066L37.05 28.7L36.0071 26.9934C35.0393 27.5849 33.7106 28.1115 31.9602 28.5298L32.425 30.475ZM37.05 28.7L38.11 30.396C39.4964 29.5295 40.6375 28.4886 41.421 27.235L39.725 26.175L38.029 25.115C37.6458 25.7281 37.0036 26.3705 35.99 27.004L37.05 28.7ZM39.725 26.175L41.4293 27.2215C42.1902 25.9825 42.6 24.6319 42.6 23.2H40.6H38.6C38.6 23.8348 38.4265 24.4675 38.0207 25.1285L39.725 26.175ZM40.6 23.2H42.6V21.125H40.6H38.6V23.2H40.6ZM33.675 21.125V23.125H43.05V21.125V19.125H33.675V21.125ZM43.05 21.125H41.05V24.3H43.05H45.05V21.125H43.05ZM43.05 24.3V22.3H33.675V24.3V26.3H43.05V24.3ZM33.675 24.3H35.675V21.125H33.675H31.675V24.3H33.675ZM35.6 34.375V36.375H51.475V34.375V32.375H35.6V34.375ZM51.475 34.375H49.475V43.375H51.475H53.475V34.375H51.475ZM51.475 43.375V41.375H47.45V43.375V45.375H51.475V43.375ZM47.45 43.375H49.45V37.525H47.45H45.45V43.375H47.45ZM47.45 37.525V35.525H35.6V37.525V39.525H47.45V37.525ZM35.6 37.525H37.6V34.375H35.6H33.6V37.525H35.6Z" fill="#2E2E14" mask="url(#path-2-outside-1_134_10)"/>
</svg>
